{
  "accessors": [
    {
      "bufferView": 2,
      "componentType": 5126,
      "count": 9111,
      "max": [
        0.2943553626537323,
        0.5073773860931396,
        0.25368860363960266
      ],
      "min": [
        -0.218656986951828,
        -0.5413768291473389,
        -0.34160563349723816
      ],
      "type": "VEC3"
    },
    {
      "bufferView": 2,
      "byteOffset": 109332,
      "componentType": 5126,
      "count": 9111,
      "max": [
        1.0,
        1.0,
        1.0
      ],
      "min": [
        -1.0,
        -1.0,
        -1.0
      ],
      "type": "VEC3"
    },
    {
      "bufferView": 3,
      "componentType": 5126,
      "count": 9111,
      "max": [
        1.0,
        0.9999929070472717,
        1.0,
        1.0
      ],
      "min": [
        -1.0,
        -0.999992847442627,
        -1.0,
        -1.0
      ],
      "type": "VEC4"
    },
    {
      "bufferView": 1,
      "componentType": 5126,
      "count": 9111,
      "max": [
        0.9641379117965698,
        0.9838050007820129
      ],
      "min": [
        0.016194820404052734,
        0.004791975021362305
      ],
      "type": "VEC2"
    },
    {
      "bufferView": 1,
      "byteOffset": 72888,
      "componentType": 5126,
      "count": 9111,
      "max": [
        0.9641379117965698,
        0.9838050007820129
      ],
      "min": [
        0.016194820404052734,
        0.004791975021362305
      ],
      "type": "VEC2"
    },
    {
      "bufferView": 1,
      "byteOffset": 145776,
      "componentType": 5126,
      "count": 9111,
      "max": [
        0.9641379117965698,
        0.9838050007820129
      ],
      "min": [
        0.016194820404052734,
        0.004791975021362305
      ],
      "type": "VEC2"
    },
    {
      "bufferView": 1,
      "byteOffset": 218664,
      "componentType": 5126,
      "count": 9111,
      "max": [
        0.9641379117965698,
        0.9838050007820129
      ],
      "min": [
        0.016194820404052734,
        0.004791975021362305
      ],
      "type": "VEC2"
    },
    {
      "bufferView": 0,
      "componentType": 5125,
      "count": 48396,
      "type": "SCALAR"
    }
  ],
  "asset": {
    "extras": {
      "author": "Meilov (https://sketchfab.com/meilov3D)",
      "license": "SKETCHFAB Standard (https://sketchfab.com/licenses)",
      "source": "https://sketchfab.com/3d-models/retro-camera-fed-2-1471f344bb84458e99386d8fb83867c8",
      "title": "Retro camera FED 2"
    },
    "generator": "Sketchfab-16.12.0",
    "version": "2.0"
  },
  "bufferViews": [
    {
      "buffer": 0,
      "byteLength": 193584,
      "name": "floatBufferViews",
      "target": 34963
    },
    {
      "buffer": 0,
      "byteLength": 291552,
      "byteOffset": 193584,
      "byteStride": 8,
      "name": "floatBufferViews",
      "target": 34962
    },
    {
      "buffer": 0,
      "byteLength": 218664,
      "byteOffset": 485136,
      "byteStride": 12,
      "name": "floatBufferViews",
      "target": 34962
    },
    {
      "buffer": 0,
      "byteLength": 145776,
      "byteOffset": 703800,
      "byteStride": 16,
      "name": "floatBufferViews",
      "target": 34962
    }
  ],
  "buffers": [
    {
      "byteLength": 849576,
      "uri": "scene.bin"
    }
  ],
  "images": [
    {
      "uri": "textures/camera_baseColor.png"
    },
    {
      "uri": "textures/camera_metallicRoughness.png"
    },
    {
      "uri": "textures/camera_emissive.png"
    },
    {
      "uri": "textures/camera_normal.png"
    }
  ],
  "materials": [
    {
      "doubleSided": true,
      "emissiveFactor": [
        1.0,
        1.0,
        1.0
      ],
      "emissiveTexture": {
        "index": 2,
        "texCoord": 1
      },
      "name": "camera",
      "normalTexture": {
        "index": 3,
        "texCoord": 2
      },
      "pbrMetallicRoughness": {
        "baseColorTexture": {
          "index": 0
        },
        "metallicRoughnessTexture": {
          "index": 1
        }
      }
    }
  ],
  "meshes": [
    {
      "name": "Camera_camera_0",
      "primitives": [
        {
          "attributes": {
            "NORMAL": 1,
            "POSITION": 0,
            "TANGENT": 2,
            "TEXCOORD_0": 3,
            "TEXCOORD_1": 4,
            "TEXCOORD_2": 5,
            "TEXCOORD_3": 6
          },
          "indices": 7,
          "material": 0,
          "mode": 4
        }
      ]
    }
  ],
  "nodes": [
    {
      "children": [
        1
      ],
      "matrix": [
        1.0,
        0.0,
        0.0,
        0.0,
        0.0,
        2.220446049250313e-16,
        -1.0,
        0.0,
        0.0,
        1.0,
        2.220446049250313e-16,
        0.0,
        0.0,
        0.0,
        0.0,
        1.0
      ],
      "name": "Sketchfab_model"
    },
    {
      "children": [
        2
      ],
      "matrix": [
        0.009999999776482582,
        0.0,
        0.0,
        0.0,
        0.0,
        0.0,
        0.009999999776482582,
        0.0,
        0.0,
        -0.009999999776482582,
        0.0,
        0.0,
        0.0,
        0.0,
        0.0,
        1.0
      ],
      "name": "31eedaf0356943958a9f7822291f7221.fbx"
    },
    {
      "children": [
        3
      ],
      "name": "RootNode"
    },
    {
      "children": [
        4
      ],
      "matrix": [
        100.0,
        0.0,
        0.0,
        0.0,
        0.0,
        -1.629206793918314e-05,
        -99.99999999999868,
        0.0,
        0.0,
        99.99999999999868,
        -1.629206793918314e-05,
        0.0,
        8.737841606140137,
        10.13595199584961,
        6.271341323852539,
        1.0
      ],
      "name": "Camera"
    },
    {
      "mesh": 0,
      "name": "Camera_camera_0"
    }
  ],
  "samplers": [
    {
      "magFilter": 9729,
      "minFilter": 9987,
      "wrapS": 10497,
      "wrapT": 10497
    }
  ],
  "scene": 0,
  "scenes": [
    {
      "name": "Sketchfab_Scene",
      "nodes": [
        0
      ]
    }
  ],
  "textures": [
    {
      "sampler": 0,
      "source": 0
    },
    {
      "sampler": 0,
      "source": 1
    },
    {
      "sampler": 0,
      "source": 2
    },
    {
      "sampler": 0,
      "source": 3
    }
  ]
}
