<?xml version="1.0" encoding="utf-8"?>
<!-- Generator: Adobe Illustrator 26.3.1, SVG Export Plug-In . SVG Version: 6.00 Build 0)  -->
<svg version="1.1" id="Layer_1" xmlns="http://www.w3.org/2000/svg" xmlns:xlink="http://www.w3.org/1999/xlink" x="0px" y="0px"
	 viewBox="0 0 14 24" enable-background="new 0 0 14 24" xml:space="preserve">
<path fill="#FFD11A" d="M6,8.7v2.3H5.8c-0.1,0-0.3,0.1-0.3,0.1c-0.1,0.1-0.2,0.2-0.2,0.3v0.4c0,0.2,0.1,0.5,0.3,0.6l0.6,0.7
	c0.1,0.1,0.2,0.2,0.4,0.3v0.6c0,0,0,0.1,0,0.1c0,0,0.1,0,0.1,0h1.8c0,0,0.1,0,0.1,0c0,0,0-0.1,0-0.1v-0.8c0.2-0.2,0.3-0.4,0.3-0.7
	v-1.7c0-0.1,0-0.1-0.1-0.2c0-0.1-0.1-0.1-0.2-0.1c-0.1,0-0.1,0-0.2,0c-0.1,0-0.1,0-0.2,0.1c0-0.1-0.1-0.2-0.1-0.3
	c-0.1-0.1-0.2-0.1-0.3-0.1c-0.1,0-0.2,0-0.3,0.1c-0.1,0.1-0.1,0.2-0.1,0.3c0-0.1,0-0.1-0.1-0.2c0-0.1-0.1-0.1-0.2-0.1
	c-0.1,0-0.1,0-0.2,0c-0.1,0-0.1,0-0.2,0.1V8.7c0-0.1,0-0.2-0.1-0.3S6.4,8.3,6.3,8.3c-0.1,0-0.2,0-0.3,0.1C6,8.5,6,8.6,6,8.7z"/>
</svg>
